# xmcd CD database file
#
# Track frame offsets:
#	150
#	14082
#	28147
#	40211
#	53109
#	72508
#	87193
#	106705
#	119191
#	130710
#	144379
#	157519
#	170863
#	182050
#	198399
#	209434
#	222630
#	236702
#	249844
#
# Disc length: 3526 seconds
#
# Revision: 0
# Processed by: cddbd v1.5.1PL2 Copyright (c) Steve Scherf et al.
# Submitted via: CDex 1.51
#
DISCID=190dc413
DTITLE=ALAN LADD - Don Williams Grootste Country-Treffers
DYEAR=2005
DGENRE=Country
TTITLE0=Gypsy Woman
TTITLE1=Amanda
TTITLE2=Some Broken Hearts
TTITLE3=You're My Best Friend
TTITLE4=I Believe In Love
TTITLE5=Rodeo Man
TTITLE6=Good Ol' Boys
TTITLE7=Ghost Story
TTITLE8=Turn Out The Light And Love Me tonight
TTITLE9=Lay Down Beside Me
TTITLE10=The Shelter Of Your Eyes
TTITLE11=Love Me Over Again
TTITLE12=Time On My Hands
TTITLE13='Till The Rivers All Run Dry
TTITLE14=It Must Be Love
TTITLE15=Desperately
TTITLE16=Another Place
TTITLE17=Tulsa Time
TTITLE18=Lord I Hope
EXTD=YEAR: 2005
EXTT0=
EXTT1=
EXTT2=
EXTT3=
EXTT4=
EXTT5=
EXTT6=
EXTT7=
EXTT8=
EXTT9=
EXTT10=
EXTT11=
EXTT12=
EXTT13=
EXTT14=
EXTT15=
EXTT16=
EXTT17=
EXTT18=
PLAYORDER=
